<svg xmlns="http://www.w3.org/2000/svg" viewBox="0 0 400 320" width="400" height="320">
  <defs>
    <pattern id="dots-about" width="20" height="20" patternUnits="userSpaceOnUse">
      <circle cx="2" cy="2" r="1" fill="#D8DEE6"/>
    </pattern>
  </defs>
  <rect x="0" y="0" width="400" height="320" fill="url(#dots-about)" opacity="0.6"/>

  <g stroke="#5A6B73" stroke-width="2" fill="none" stroke-linecap="round">
    <path d="M200 64 L120 130"/>
    <path d="M200 64 L280 130"/>
    <path d="M120 188 L80 250"/>
    <path d="M120 188 L160 250"/>
    <path d="M280 188 L240 250"/>
    <path d="M280 188 L320 250"/>
  </g>

  <rect x="160" y="30" width="80" height="36" rx="18" fill="#FFFFFF" stroke="#2A6B45" stroke-width="2.5"/>
  <text x="200" y="53" text-anchor="middle" font-family="Inter, sans-serif" font-size="12" font-weight="600" fill="#102026">Idea</text>

  <rect x="80" y="130" width="80" height="58" rx="6" fill="#FFFFFF" stroke="#1B4D5A" stroke-width="2.5"/>
  <text x="120" y="164" text-anchor="middle" font-family="Inter, sans-serif" font-size="11" font-weight="600" fill="#102026">Outline</text>

  <rect x="240" y="130" width="80" height="58" rx="6" fill="#FFFFFF" stroke="#1B4D5A" stroke-width="2.5"/>
  <text x="280" y="164" text-anchor="middle" font-family="Inter, sans-serif" font-size="11" font-weight="600" fill="#102026">Decide</text>

  <rect x="50" y="252" width="60" height="40" rx="6" fill="#FFFFFF" stroke="#2C7DC9" stroke-width="2"/>
  <text x="80" y="277" text-anchor="middle" font-family="Inter, sans-serif" font-size="10" fill="#102026">Draft</text>

  <rect x="130" y="252" width="60" height="40" rx="6" fill="#FFFFFF" stroke="#2C7DC9" stroke-width="2"/>
  <text x="160" y="277" text-anchor="middle" font-family="Inter, sans-serif" font-size="10" fill="#102026">Review</text>

  <rect x="210" y="252" width="60" height="40" rx="6" fill="#FFFFFF" stroke="#2C7DC9" stroke-width="2"/>
  <text x="240" y="277" text-anchor="middle" font-family="Inter, sans-serif" font-size="10" fill="#102026">Ship</text>

  <rect x="290" y="252" width="60" height="40" rx="6" fill="#FFFFFF" stroke="#2C7DC9" stroke-width="2"/>
  <text x="320" y="277" text-anchor="middle" font-family="Inter, sans-serif" font-size="10" fill="#102026">Iterate</text>
</svg>
