<svg xmlns="http://www.w3.org/2000/svg" viewBox="0 0 320 320" width="320" height="320">
  <g stroke="#FFFFFF" stroke-width="2.5" fill="none" stroke-linecap="round" stroke-linejoin="round">
    <path d="M160 60 L160 100"/>
    <path d="M156 95 L160 103 L164 95"/>
    <path d="M120 145 L80 195"/>
    <path d="M78 188 L80 195 L87 195"/>
    <path d="M200 145 L240 195"/>
    <path d="M233 195 L240 195 L238 188"/>
  </g>
  <rect x="120" y="28" width="80" height="34" rx="17" fill="rgba(255,255,255,0.18)" stroke="#FFFFFF" stroke-width="2"/>
  <path d="M160 100 L210 130 L160 162 L110 130 Z" fill="rgba(255,255,255,0.18)" stroke="#FFFFFF" stroke-width="2"/>
  <rect x="30" y="200" width="100" height="46" rx="6" fill="rgba(255,255,255,0.18)" stroke="#FFFFFF" stroke-width="2"/>
  <rect x="190" y="200" width="100" height="46" rx="6" fill="rgba(255,255,255,0.18)" stroke="#FFFFFF" stroke-width="2"/>
  <text x="160" y="50" text-anchor="middle" font-family="Inter, sans-serif" font-size="12" font-weight="600" fill="#FFFFFF">Start</text>
  <text x="160" y="135" text-anchor="middle" font-family="Inter, sans-serif" font-size="11" font-weight="600" fill="#FFFFFF">Ready?</text>
  <text x="80" y="228" text-anchor="middle" font-family="Inter, sans-serif" font-size="11" font-weight="600" fill="#FFFFFF">Step A</text>
  <text x="240" y="228" text-anchor="middle" font-family="Inter, sans-serif" font-size="11" font-weight="600" fill="#FFFFFF">Step B</text>
</svg>
